<?xml version="1.0"?>
<svg xmlns="http://www.w3.org/2000/svg" height="512px" viewBox="0 0 448 448" width="512px" class=""><g><path d="m320 192c-53.019531 0-96 42.980469-96 96s42.980469 96 96 96 96-42.980469 96-96c-.058594-52.996094-43.003906-95.941406-96-96zm0 168c-39.765625 0-72-32.234375-72-72s32.234375-72 72-72 72 32.234375 72 72c-.046875 39.746094-32.253906 71.953125-72 72zm0 0" data-original="#000000" class="active-path" data-old_color="##F52F5" fill="#F52F57"/><path d="m32 192h96v48h-96zm0 0" data-original="#000000" class="active-path" data-old_color="##F52F5" fill="#F52F57"/><path d="m440 160h-432c-4.417969 0-8 3.582031-8 8v272c0 4.417969 3.582031 8 8 8h432c4.417969 0 8-3.582031 8-8v-272c0-4.417969-3.582031-8-8-8zm-296 264c0 4.417969-3.582031 8-8 8h-112c-4.417969 0-8-3.582031-8-8v-64c0-4.417969 3.582031-8 8-8h112c4.417969 0 8 3.582031 8 8zm0-96h-128v-16h128zm0-32h-128v-16h128zm0-48c0 4.417969-3.582031 8-8 8h-112c-4.417969 0-8-3.582031-8-8v-64c0-4.417969 3.582031-8 8-8h112c4.417969 0 8 3.582031 8 8zm280 184h-208v-16h208zm-104-32c-61.855469 0-112-50.144531-112-112s50.144531-112 112-112 112 50.144531 112 112c-.066406 61.828125-50.171875 111.933594-112 112zm112-208h-16v-16h16zm0 0" data-original="#000000" class="active-path" data-old_color="##F52F5" fill="#F52F57"/><path d="m396.960938 22.640625-300.5625 97.839844c-6.949219-5.484375-15.542969-8.472657-24.398438-8.480469-.507812-.011719-1.015625.011719-1.519531.078125l321.519531-104.636719v.558594c.039062 5.285156 1.777344 10.417969 4.960938 14.640625zm0 0" data-original="#000000" class="active-path" data-old_color="##F52F5" fill="#F52F57"/><path d="m72 128c-10.132812.042969-19.148438 6.445312-22.527344 16h45.054688c-3.378906-9.554688-12.394532-15.957031-22.527344-16zm0 0" data-original="#000000" class="active-path" data-old_color="##F52F5" fill="#F52F57"/><path d="m32 368h96v48h-96zm0 0" data-original="#000000" class="active-path" data-old_color="##F52F5" fill="#F52F57"/><path d="m320 232c-30.929688 0-56 25.070312-56 56s25.070312 56 56 56 56-25.070312 56-56c-.035156-30.914062-25.085938-55.964844-56-56zm-24 64h-16v-16h16zm32 32h-16v-16h16zm0-32h-16v-16h16zm0-32h-16v-16h16zm32 32h-16v-16h16zm0 0" data-original="#000000" class="active-path" data-old_color="##F52F5" fill="#F52F57"/><path d="m424 8c0 4.417969-3.582031 8-8 8s-8-3.582031-8-8 3.582031-8 8-8 8 3.582031 8 8zm0 0" data-original="#000000" class="active-path" data-old_color="##F52F5" fill="#F52F57"/></g> </svg>
